<?xml version="1.0" encoding="UTF-8" standalone="no"?>
<!-- Created with Inkscape (http://www.inkscape.org/) -->

<svg
   xmlns:dc="http://purl.org/dc/elements/1.1/"
   xmlns:cc="http://creativecommons.org/ns#"
   xmlns:rdf="http://www.w3.org/1999/02/22-rdf-syntax-ns#"
   xmlns:svg="http://www.w3.org/2000/svg"
   xmlns="http://www.w3.org/2000/svg"
   xmlns:sodipodi="http://sodipodi.sourceforge.net/DTD/sodipodi-0.dtd"
   xmlns:inkscape="http://www.inkscape.org/namespaces/inkscape"
   width="11in"
   height="8.5in"
   viewBox="0 0 990 764.99999"
   id="svg2"
   version="1.1"
   inkscape:version="0.91 r13725"
   sodipodi:docname="conceptual drawing.svg">
  <defs
     id="defs4">
    <marker
       inkscape:isstock="true"
       style="overflow:visible"
       id="marker5757"
       refX="0.0"
       refY="0.0"
       orient="auto"
       inkscape:stockid="TriangleOutL">
      <path
         transform="scale(0.8)"
         style="fill-rule:evenodd;stroke:#000000;stroke-width:1pt;stroke-opacity:1;fill:#000000;fill-opacity:1"
         d="M 5.77,0.0 L -2.88,5.0 L -2.88,-5.0 L 5.77,0.0 z "
         id="path5759" />
    </marker>
    <marker
       inkscape:stockid="TriangleOutL"
       orient="auto"
       refY="0.0"
       refX="0.0"
       id="TriangleOutL"
       style="overflow:visible"
       inkscape:isstock="true"
       inkscape:collect="always">
      <path
         id="path4357"
         d="M 5.77,0.0 L -2.88,5.0 L -2.88,-5.0 L 5.77,0.0 z "
         style="fill-rule:evenodd;stroke:#000000;stroke-width:1pt;stroke-opacity:1;fill:#000000;fill-opacity:1"
         transform="scale(0.8)" />
    </marker>
    <inkscape:perspective
       sodipodi:type="inkscape:persp3d"
       inkscape:vp_x="356.64663 : 248.90196 : 1"
       inkscape:vp_y="0 : 360.89443 : 0"
       inkscape:vp_z="1346.6466 : 248.90196 : 1"
       inkscape:persp3d-origin="851.64663 : 202.88792 : 1"
       id="perspective4191" />
  </defs>
  <sodipodi:namedview
     id="base"
     pagecolor="#ffffff"
     bordercolor="#666666"
     borderopacity="1.0"
     inkscape:pageopacity="0.0"
     inkscape:pageshadow="2"
     inkscape:zoom="0.75151873"
     inkscape:cx="491.2807"
     inkscape:cy="337.62905"
     inkscape:document-units="px"
     inkscape:current-layer="layer1"
     showgrid="true"
     units="in"
     inkscape:window-width="1440"
     inkscape:window-height="900"
     inkscape:window-x="0"
     inkscape:window-y="0"
     inkscape:window-maximized="0">
    <inkscape:grid
       type="xygrid"
       id="grid4136" />
  </sodipodi:namedview>
  <metadata
     id="metadata7">
    <rdf:RDF>
      <cc:Work
         rdf:about="">
        <dc:format>image/svg+xml</dc:format>
        <dc:type
           rdf:resource="http://purl.org/dc/dcmitype/StillImage" />
        <dc:title></dc:title>
      </cc:Work>
    </rdf:RDF>
  </metadata>
  <g
     inkscape:label="Layer 1"
     inkscape:groupmode="layer"
     id="layer1"
     transform="translate(0,-287.36221)">
    <rect
       style="opacity:1;fill:#d5f6ff;stroke:#bd4747;stroke-width:1;stroke-linecap:butt;stroke-linejoin:round;stroke-miterlimit:4;stroke-dasharray:3, 3;stroke-dashoffset:0;stroke-opacity:1"
       id="rect4138"
       width="560"
       height="462.85715"
       x="307.44687"
       y="339.05997" />
    <path
       style="fill:none;fill-rule:evenodd;stroke:#000000;stroke-width:1px;stroke-linecap:butt;stroke-linejoin:miter;stroke-opacity:1"
       d="m 307.44686,359.05997 560,0"
       id="path4140"
       inkscape:connector-curvature="0" />
    <path
       style="fill:none;fill-rule:evenodd;stroke:#000000;stroke-width:1px;stroke-linecap:butt;stroke-linejoin:miter;stroke-opacity:1"
       d="m 847.44686,359.05997 0.22052,442.86673"
       id="path4142"
       inkscape:connector-curvature="0"
       sodipodi:nodetypes="cc" />
    <text
       xml:space="preserve"
       style="font-style:normal;font-weight:normal;font-size:12.5px;line-height:125%;font-family:Sans;letter-spacing:0px;word-spacing:0px;fill:#000000;fill-opacity:1;stroke:none;stroke-width:1px;stroke-linecap:butt;stroke-linejoin:miter;stroke-opacity:1"
       x="873.0365"
       y="344.68317"
       id="text4144"
       sodipodi:linespacing="125%"><tspan
         sodipodi:role="line"
         id="tspan4146"
         x="873.0365"
         y="344.68317"
         style="font-size:20px">0</tspan></text>
    <ellipse
       style="opacity:1;fill:#000000;fill-opacity:1;stroke:#bd4747;stroke-width:1;stroke-linecap:butt;stroke-linejoin:round;stroke-miterlimit:4;stroke-dasharray:3, 3;stroke-dashoffset:0;stroke-opacity:1"
       id="path4148"
       cx="317.1077"
       cy="350.11386"
       rx="5.245399"
       ry="5.2826467" />
    <ellipse
       ry="5.2826467"
       rx="5.245399"
       cy="350.11386"
       cx="337.10767"
       id="ellipse4150"
       style="opacity:1;fill:#000000;fill-opacity:1;stroke:#bd4747;stroke-width:1;stroke-linecap:butt;stroke-linejoin:round;stroke-miterlimit:4;stroke-dasharray:3, 3;stroke-dashoffset:0;stroke-opacity:1" />
    <ellipse
       style="opacity:1;fill:#000000;fill-opacity:1;stroke:#bd4747;stroke-width:1;stroke-linecap:butt;stroke-linejoin:round;stroke-miterlimit:4;stroke-dasharray:3, 3;stroke-dashoffset:0;stroke-opacity:1"
       id="ellipse4152"
       cx="357.10767"
       cy="350.11386"
       rx="5.245399"
       ry="5.2826467" />
    <rect
       style="opacity:1;fill:#000000;fill-opacity:1;stroke:#bd4747;stroke-width:1;stroke-linecap:round;stroke-linejoin:round;stroke-miterlimit:4;stroke-dasharray:3, 3;stroke-dashoffset:0;stroke-opacity:1"
       id="rect4154"
       width="10"
       height="110"
       x="851.61694"
       y="367.36847" />
    <text
       xml:space="preserve"
       style="font-style:normal;font-weight:normal;font-size:12.5px;line-height:125%;font-family:Sans;letter-spacing:0px;word-spacing:0px;fill:#000000;fill-opacity:1;stroke:none;stroke-width:1px;stroke-linecap:butt;stroke-linejoin:miter;stroke-opacity:1"
       x="869.72876"
       y="804.79346"
       id="text4175"
       sodipodi:linespacing="125%"><tspan
         sodipodi:role="line"
         id="tspan4177"
         x="869.72876"
         y="804.79346"
         style="font-size:20px">∞</tspan></text>
    <text
       sodipodi:linespacing="125%"
       id="text4179"
       y="842.38885"
       x="869.94928"
       style="font-style:normal;font-weight:normal;font-size:12.5px;line-height:125%;font-family:Sans;letter-spacing:0px;word-spacing:0px;fill:#000000;fill-opacity:1;stroke:none;stroke-width:1px;stroke-linecap:butt;stroke-linejoin:miter;stroke-opacity:1"
       xml:space="preserve"><tspan
         style="font-size:20px"
         y="842.38885"
         x="869.94928"
         id="tspan4181"
         sodipodi:role="line">∞ + 1</tspan></text>
    <text
       xml:space="preserve"
       style="font-style:normal;font-weight:normal;font-size:12.5px;line-height:125%;font-family:Sans;letter-spacing:0px;word-spacing:0px;fill:#000000;fill-opacity:1;stroke:none;stroke-width:1px;stroke-linecap:butt;stroke-linejoin:miter;stroke-opacity:1"
       x="506.01471"
       y="424.11127"
       id="text4183"
       sodipodi:linespacing="125%"><tspan
         sodipodi:role="line"
         id="tspan4185"
         x="506.01471"
         y="424.11127"
         style="font-size:30px">Web Page</tspan></text>
    <path
       sodipodi:type="star"
       style="opacity:1;fill:#000000;fill-opacity:1;stroke:#bd4747;stroke-width:1;stroke-linecap:round;stroke-linejoin:round;stroke-miterlimit:4;stroke-dasharray:3, 3;stroke-dashoffset:0;stroke-opacity:1"
       id="path4187"
       sodipodi:sides="5"
       sodipodi:cx="500.4267"
       sodipodi:cy="584.56982"
       sodipodi:r1="128.60565"
       sodipodi:r2="64.302826"
       sodipodi:arg1="0.62120343"
       sodipodi:arg2="1.249522"
       inkscape:flatsided="false"
       inkscape:rounded="0"
       inkscape:randomized="0"
       d="m 605.00606,659.42014 -84.27408,-13.83762 -59.17536,61.57821 -12.88177,-84.42547 -76.85055,-37.2504 76.31271,-38.34019 11.67911,-84.60023 60.04562,60.72993 84.06864,-15.03542 -39.20248,75.87336 z"
       inkscape:transform-center-x="10.923699"
       inkscape:transform-center-y="0.25835169"
       transform="matrix(0.90943564,0,0,0.91366905,18.540759,42.843147)" />
    <path
       sodipodi:type="spiral"
       style="fill:none;fill-rule:evenodd;stroke:#000000;stroke-width:1px;stroke-linecap:butt;stroke-linejoin:miter;stroke-opacity:1"
       id="path4189"
       sodipodi:cx="70"
       sodipodi:cy="412.36221"
       sodipodi:expansion="1"
       sodipodi:revolution="3"
       sodipodi:radius="148.66069"
       sodipodi:argument="-18.016575"
       sodipodi:t0="0"
       d="m 70,412.36221 c 5.013842,5.51523 -4.960759,9.47958 -9.166665,8.33334 -11.397746,-3.10624 -12.546964,-17.94952 -7.500006,-26.66667 9.027825,-15.59293 30.583479,-16.44354 44.166666,-6.66667 19.933875,14.34795 20.465125,43.39226 5.833345,61.66666 -19.501861,24.35691 -56.26356,24.54054 -79.166666,5.00002 -28.8212208,-24.58975 -28.6439048,-69.16476 -4.166686,-96.66667 29.645191,-33.30849 82.082822,-32.76348 114.166672,-3.33335 37.80969,34.68239 36.89325,95.0114 2.50002,131.66666 -39.708334,42.31996 -107.947005,41.02981 -149.166666,1.6667 -46.836399,-44.72686 -45.171111,-120.88754 -0.833368,-166.66667 49.740248,-51.35726 133.831664,-49.31586 184.166674,-4e-5 55.88139,54.74992 53.46319,146.7785 -0.8333,201.66667"
       transform="matrix(0.70236306,0,0,0.70407765,684.38018,349.42519)" />
    <g
       sodipodi:type="inkscape:box3d"
       id="g4193"
       style="opacity:1;fill:#000000;fill-opacity:1;stroke:#bd4747;stroke-width:1;stroke-linecap:round;stroke-linejoin:round;stroke-miterlimit:4;stroke-dasharray:3, 3;stroke-dashoffset:0;stroke-opacity:1"
       inkscape:perspectiveID="#perspective4191"
       inkscape:corner0="5.1875001 : 1.1020312 : 0 : 1"
       inkscape:corner7="1.6631826 : 0.15863129 : 0.25 : 1">
      <path
         sodipodi:type="inkscape:box3dside"
         id="path4205"
         style="fill:#e9e9ff;fill-rule:evenodd;stroke:none;stroke-width:1px;stroke-linecap:butt;stroke-linejoin:round;stroke-opacity:1"
         inkscape:box3dsidetype="11"
         d="m 471.98642,748.82679 139.53608,-66.0946 0,116.87141 -139.53608,2.11139 z"
         points="611.5225,682.73219 611.5225,799.6036 471.98642,801.71499 471.98642,748.82679 " />
      <path
         sodipodi:type="inkscape:box3dside"
         id="path4195"
         style="fill:#353564;fill-rule:evenodd;stroke:none;stroke-width:1px;stroke-linecap:butt;stroke-linejoin:round;stroke-opacity:1"
         inkscape:box3dsidetype="6"
         d="m 436.64662,746.61938 0,55.02509 35.3398,0.0705 0,-52.8882 z"
         points="436.64662,801.64447 471.98642,801.71499 471.98642,748.82679 436.64662,746.61938 " />
      <path
         sodipodi:type="inkscape:box3dside"
         id="path4197"
         style="fill:#4d4d9f;fill-rule:evenodd;stroke:none;stroke-width:1px;stroke-linecap:butt;stroke-linejoin:round;stroke-opacity:1"
         inkscape:box3dsidetype="5"
         d="m 436.64662,746.61938 105.86784,-75.22025 69.00804,11.33306 -139.53608,66.0946 z"
         points="542.51446,671.39913 611.5225,682.73219 471.98642,748.82679 436.64662,746.61938 " />
      <path
         sodipodi:type="inkscape:box3dside"
         id="path4203"
         style="fill:#afafde;fill-rule:evenodd;stroke:none;stroke-width:1px;stroke-linecap:butt;stroke-linejoin:round;stroke-opacity:1"
         inkscape:box3dsidetype="13"
         d="m 436.64662,801.64447 105.86784,-2.4029 69.00804,0.36203 -139.53608,2.11139 z"
         points="542.51446,799.24157 611.5225,799.6036 471.98642,801.71499 436.64662,801.64447 " />
      <path
         sodipodi:type="inkscape:box3dside"
         id="path4201"
         style="fill:#d7d7ff;fill-rule:evenodd;stroke:none;stroke-width:1px;stroke-linecap:butt;stroke-linejoin:round;stroke-opacity:1"
         inkscape:box3dsidetype="14"
         d="m 542.51446,671.39913 0,127.84244 69.00804,0.36203 0,-116.87141 z"
         points="542.51446,799.24157 611.5225,799.6036 611.5225,682.73219 542.51446,671.39913 " />
      <path
         sodipodi:type="inkscape:box3dside"
         id="path4199"
         style="fill:#8686bf;fill-rule:evenodd;stroke:none;stroke-width:1px;stroke-linecap:butt;stroke-linejoin:round;stroke-opacity:1"
         inkscape:box3dsidetype="3"
         d="m 436.64662,746.61938 105.86784,-75.22025 0,127.84244 -105.86784,2.4029 z"
         points="542.51446,671.39913 542.51446,799.24157 436.64662,801.64447 436.64662,746.61938 " />
    </g>
    <rect
       style="opacity:1;fill:#f61714;fill-opacity:1;stroke:#bd4747;stroke-width:1;stroke-linecap:round;stroke-linejoin:round;stroke-miterlimit:4;stroke-dasharray:3, 3;stroke-dashoffset:0;stroke-opacity:1"
       id="rect4207"
       width="560"
       height="40"
       x="307.44687"
       y="799.06" />
    <path
       style="fill:none;fill-rule:evenodd;stroke:#000000;stroke-width:2;stroke-linecap:butt;stroke-linejoin:miter;stroke-miterlimit:4;stroke-dasharray:none;stroke-opacity:1;marker-end:url(#TriangleOutL)"
       d="m 911.76793,341.05997 0,420"
       id="path4209"
       inkscape:connector-curvature="0" />
    <path
       style="fill:none;fill-rule:evenodd;stroke:#000000;stroke-width:4.69999981;stroke-linecap:butt;stroke-linejoin:miter;stroke-miterlimit:4;stroke-dasharray:none;stroke-opacity:1;marker-end:url(#marker5757)"
       d="m 154,832.36221 660,0"
       id="path5745"
       inkscape:connector-curvature="0" />
    <text
       xml:space="preserve"
       style="font-style:normal;font-weight:normal;font-size:12.5px;line-height:125%;font-family:Sans;letter-spacing:0px;word-spacing:0px;fill:#000000;fill-opacity:1;stroke:none;stroke-width:1px;stroke-linecap:butt;stroke-linejoin:miter;stroke-opacity:1"
       x="54.415886"
       y="809.06268"
       id="text5747"
       sodipodi:linespacing="125%"><tspan
         sodipodi:role="line"
         id="tspan5749"
         x="54.415886"
         y="809.06268"
         style="font-size:22.5px">bot.startScrolling()</tspan></text>
    <path
       style="opacity:1;fill:#ec0a1a;fill-opacity:1;stroke:#bd4747;stroke-width:4.69999981;stroke-linecap:round;stroke-linejoin:round;stroke-miterlimit:4;stroke-dasharray:none;stroke-dashoffset:0;stroke-opacity:1"
       id="path6067"
       d="m 59.822737,879.82013 c -0.343557,7.19355 -0.378568,14.40351 -0.144764,21.60051 0.412981,9.2707 1.247378,18.51962 2.19229,27.74967 0.976817,10.04787 2.116147,20.08098 2.914669,30.14515 0.489324,7.67907 0.912282,15.35353 1.670448,23.01177 0.573676,5.0648 0.730839,10.157 1.068786,15.2373 0.445731,4.93037 0.904698,9.85937 1.339506,14.79067 0.149654,2.6138 0.127231,5.2829 1.074153,7.7646 -0.09725,-0.3698 -0.194496,-0.7395 -0.291745,-1.1092 0,0 -18.846356,13.3872 -18.846356,13.3872 l 0,0 c -0.346875,-0.3965 -0.69375,-0.793 -1.040625,-1.1895 -0.765262,-2.7297 -1.189438,-5.5464 -1.139439,-8.3843 -0.162543,-4.9539 -0.514989,-9.9008 -1.135143,-14.8198 -0.578818,-5.0867 -0.393813,-10.2246 -0.914454,-15.32148 -0.612419,-7.73653 -1.117301,-15.46074 -1.332742,-23.22092 -0.720683,-10.05243 -1.880346,-20.05906 -2.88333,-30.0855 -1.019807,-9.24095 -1.890162,-18.50354 -2.417778,-27.78625 -0.399185,-7.12008 -0.09122,-14.25321 -0.514897,-21.37487 0,0 20.401421,-10.39505 20.401421,-10.39505 z"
       inkscape:connector-curvature="0" />
    <path
       style="opacity:1;fill:#ec0a1a;fill-opacity:1;stroke:#bd4747;stroke-width:4.69999981;stroke-linecap:round;stroke-linejoin:round;stroke-miterlimit:4;stroke-dasharray:none;stroke-dashoffset:0;stroke-opacity:1"
       id="path6069"
       d="m 48.851563,971.16402 c 1.749708,-4.73538 4.038141,-9.21526 6.578328,-13.5681 3.814116,-6.48685 9.325441,-11.13561 15.521799,-15.20783 10.30407,-5.60863 21.71662,-15.73064 34.61882,-15.51611 5.71899,0.0575 8.82911,4.18224 11.62575,8.64352 4.34563,7.03757 7.63539,14.59071 10.17955,22.44284 2.42344,7.21339 4.19444,14.63075 5.8212,22.05884 1.15278,5.92378 2.49861,11.79087 4.36957,17.53077 0.49255,1.41633 0.26052,0.77401 0.68854,1.92968 0,0 -20.17409,11.05527 -20.17409,11.05527 l 0,0 c -0.32003,-1.256 -0.14484,-0.5621 -0.52342,-2.0824 -1.44978,-5.9373 -2.77465,-11.89906 -4.03049,-17.87962 -1.56162,-7.37702 -3.34066,-14.72458 -5.61768,-21.91555 -2.46012,-7.64825 -5.60024,-15.07619 -9.99004,-21.83672 -2.9954,-4.15212 -5.25875,-6.77591 -10.66415,-6.55817 -2.13308,0.17101 -2.23214,0.0962 -4.42649,0.64676 -7.830669,1.96453 -21.970311,11.67333 8.9283,-6.59701 -6.22495,3.75131 -11.904194,7.97688 -15.874752,14.21058 -2.482562,4.09956 -4.784545,8.3995 -6.183678,13.00179 0,0 -20.847067,9.64146 -20.847067,9.64146 z"
       inkscape:connector-curvature="0" />
    <path
       style="opacity:1;fill:#ec0a1a;fill-opacity:1;stroke:#bd4747;stroke-width:4.69999981;stroke-linecap:round;stroke-linejoin:round;stroke-miterlimit:4;stroke-dasharray:none;stroke-dashoffset:0;stroke-opacity:1"
       id="path6071"
       d="m 222.12682,950.99597 c -1.41236,3.62954 -2.71584,7.30868 -3.9393,11.00736 -1.36738,4.36981 -2.93399,8.66776 -4.55219,12.94893 -1.5038,3.56184 -3.04032,7.11537 -4.77827,10.57003 -1.63962,3.48716 -3.83143,6.66758 -6.04185,9.80974 -1.59807,2.41624 -3.50757,4.49459 -5.74366,6.31447 -9.06408,8.5619 -16.23662,12.3506 -26.64007,12.5859 -2.4349,-0.1002 -5.01208,0.4235 -7.35401,-0.3317 -2.78337,-0.9483 -3.96089,-4.1838 -5.07879,-6.6592 -1.4621,-3.6237 -2.12338,-7.53356 -2.90303,-11.35186 -0.82054,-4.3836 -1.05854,-8.86897 -0.89815,-13.31958 0.40488,-4.60387 1.41945,-9.14308 2.37541,-13.66083 0.83815,-4.53511 2.49088,-8.85955 4.3888,-13.04461 1.94873,-3.83507 4.34604,-7.42132 6.82276,-10.93073 2.19187,-3.19725 4.81375,-6.05168 7.48195,-8.8499 7.33378,-7.50377 16.78962,-14.40209 27.34867,-15.65698 3.08641,-0.36956 6.05451,-0.1928 8.92215,1.03736 2.61427,1.56454 4.11329,4.07026 5.41408,6.72114 0.81837,2.31315 1.76133,4.56812 2.63115,6.86128 0.82323,1.91789 0.88728,4.01268 1.20887,6.04156 0.70062,2.65071 1.01121,5.36715 1.27912,8.0878 0.21655,2.77178 0.21091,5.55544 0.17862,8.33358 -0.0794,3.83837 -0.005,7.67661 -0.044,11.51521 -0.27834,3.78128 0.42078,7.48636 0.87335,11.21778 0.30636,3.00716 0.94069,6.01861 1.85754,8.90207 0.56498,1.92844 1.70191,3.46569 2.86039,5.05633 1.44715,1.49718 3.17854,2.63796 5.01856,3.59118 2.44171,1.66151 4.92457,3.2673 7.47376,4.7635 2.1769,0.8559 4.21733,1.9462 6.52339,2.4347 1.6057,0.3093 3.24854,0.428 4.88282,0.4138 0.0589,0.01 0.11779,0.019 0.17668,0.029 0,0 -18.8854,13.4393 -18.8854,13.4393 l 0,0 c -0.0192,0 -0.0384,0 -0.0576,0.01 -1.68256,-0.2051 -3.37154,-0.4262 -5.00127,-0.9096 -2.37458,-0.7567 -4.66053,-1.8262 -6.84982,-3.0083 -2.46514,-1.5746 -4.96561,-3.0924 -7.43008,-4.6681 -2.06961,-1.2049 -4.08639,-2.4968 -5.60603,-4.3878 -1.32617,-1.7687 -2.53605,-3.559 -3.16477,-5.7105 -1.04313,-2.99856 -1.54338,-6.23788 -1.94422,-9.37423 -0.47702,-3.81735 -1.24547,-7.60746 -0.98409,-11.47597 -0.0333,-3.82439 0.0536,-7.64826 -0.0274,-11.4724 -0.042,-2.71411 -0.0276,-5.43014 -0.16576,-8.14188 -0.15605,-2.62707 -0.42827,-5.2544 -1.18061,-7.7879 -0.50138,-1.89619 -0.35407,-3.89771 -1.05543,-5.75735 -0.80907,-2.23468 -1.72097,-4.41382 -2.46421,-6.67179 -1.08149,-2.12723 -2.09505,-4.29222 -4.47213,-5.23155 -2.71165,-0.70357 -5.46506,-0.63955 -8.20739,-0.0629 -7.49793,2.06722 -17.16101,9.58206 15.73888,-9.78111 0.42265,-0.24875 -0.89654,0.40534 -1.31157,0.6666 -1.17104,0.73715 -1.56451,1.2515 -2.55428,2.24399 -2.67622,2.74452 -5.35731,5.50176 -7.65399,8.58049 -2.53387,3.38651 -4.77307,6.96758 -7.02826,10.54258 -1.91977,4.03112 -3.71572,8.18414 -4.58531,12.58449 -0.98756,4.41324 -1.94593,8.87099 -2.53439,13.3495 -0.36667,4.26099 0.0276,8.56052 0.68426,12.78008 0.69189,3.64621 1.4181,7.35074 2.74468,10.81931 0.91649,1.93776 1.61302,4.43804 4.04778,4.75914 2.31446,0.067 4.63153,0.028 6.94433,-0.077 1.26295,-0.108 2.53778,-0.1929 3.75488,-0.5814 0.34026,-0.1086 1.30196,-0.5811 0.99394,-0.40028 -17.98652,10.55828 -25.50591,13.63168 -17.86217,10.46018 2.30472,-1.7067 4.61132,-3.3337 6.19357,-5.799 2.25872,-3.0298 4.4325,-6.15119 6.20956,-9.48966 1.73291,-3.40857 3.22836,-6.91633 4.89862,-10.34901 1.57977,-4.27567 3.31546,-8.49281 4.66611,-12.85192 1.05463,-3.72339 2.48177,-7.32091 3.55775,-11.03783 0,0 20.84706,-9.64147 20.84706,-9.64147 z"
       inkscape:connector-curvature="0" />
    <path
       style="opacity:1;fill:#ec0a1a;fill-opacity:1;stroke:#bd4747;stroke-width:4.69999981;stroke-linecap:round;stroke-linejoin:round;stroke-miterlimit:4;stroke-dasharray:none;stroke-dashoffset:0;stroke-opacity:1"
       id="path6073"
       d="m 268.44698,1013.13 c 0.76669,-3.4034 1.26311,-6.8934 1.21804,-10.3853 -0.45046,-4.453 -0.79111,-8.90126 -0.89766,-13.37662 -0.45839,-6.01982 -0.84002,-12.05744 -1.85925,-18.01325 -0.89315,-4.27833 -1.0166,-8.65094 -1.5515,-12.97155 -0.6239,-3.42312 -1.11156,-6.86066 -1.37311,-10.33021 -0.54219,-3.89882 -1.1026,-7.7888 -1.38061,-11.71812 -0.23598,-3.86566 -0.3112,-7.73974 -0.35912,-11.61177 -0.0451,-2.71988 -0.0459,-5.43958 -0.0327,-8.15976 0.016,-2.93915 0.0217,-5.87835 0.0252,-8.81754 0.14856,-2.11654 -0.17207,-4.09981 -0.84783,-6.09299 -0.33273,-0.4573 -0.81929,-0.66207 -1.35953,-0.61248 0.63496,7.48282 13.15605,-7.25655 19.56008,-11.17882 0.0494,1.24449 -0.24775,2.55386 0.21883,3.73632 0.64576,1.32954 1.34652,2.62773 1.93131,3.98831 0.46739,1.70604 1.0507,3.37171 1.66883,5.02874 0.31675,1.36238 1.23212,1.81193 2.31927,2.59486 1.94417,1.16897 3.84047,2.32695 6.00078,3.0859 2.15508,0.73187 4.40716,1.09413 6.67435,1.19248 10.71415,-1.09665 -23.49625,16.9939 -17.80271,10.89628 0.28378,-1.22176 0.81293,-2.50959 1.46231,-3.59323 6.35715,-6.83999 15.18171,-11.54684 24.13087,-14.51365 1.6648,-0.57662 3.45029,-0.61406 5.1955,-0.60486 2.08809,-0.14289 2.92712,0.0196 4.84442,0.76392 1.66901,0.40592 3.00092,1.33238 4.20874,2.53501 1.35994,1.39688 2.22832,3.21784 3.11693,4.93658 1.27159,2.00065 1.85783,4.28192 2.48077,6.5391 0.66093,2.88105 1.63726,5.67265 2.37753,8.5332 0.86454,3.15197 1.92687,6.2264 2.65028,9.41853 0.62518,3.41308 1.53812,6.7541 2.06303,10.1869 0.51062,3.3356 0.4268,6.72711 0.50927,10.09218 0.0116,3.16545 0.009,6.33092 0.026,9.49653 -0.002,2.56125 -0.13927,5.10842 0.34079,7.6336 0.47753,2.78916 0.86899,5.59461 1.09153,8.41608 0.15661,2.19841 0.15761,4.39922 0.13345,6.6012 0.16782,2.50659 0.83051,4.94223 1.20682,7.42102 0.27953,1.8052 0.94528,3.52393 1.37772,5.30108 0.3379,1.57073 0.44518,3.17373 0.56474,4.77173 0.009,0.1255 0.0185,0.2509 0.0278,0.3764 0,0 -20.57635,10.5385 -20.57635,10.5385 l 0,0 c 0.004,-0.123 0.008,-0.246 0.0122,-0.3689 0.0181,-1.4842 -0.039,-2.9721 -0.27834,-4.4395 -0.36839,-1.8728 -1.13468,-3.625 -1.43375,-5.4866 -0.30527,-2.5935 -0.8451,-5.14547 -1.30932,-7.71367 -0.0264,-2.15372 -0.0212,-4.30785 -0.0888,-6.46073 -0.13293,-2.72914 -0.35,-5.4622 -0.92076,-8.14002 -0.60229,-2.67897 -0.63313,-5.32559 -0.52604,-8.07173 0.0286,-3.16669 0.0482,-6.33291 0.0325,-9.49975 0.0242,-3.27758 -0.0245,-6.56155 -0.37491,-9.82359 -0.43753,-3.40222 -1.32905,-6.69379 -1.9351,-10.06226 -0.66813,-3.1947 -1.78291,-6.21832 -2.77936,-9.31791 -0.58051,-2.87248 -1.54815,-5.62648 -2.26792,-8.46066 -0.61059,-2.07558 -1.19644,-4.19243 -2.29961,-6.07039 -0.82137,-1.46392 -1.53344,-3.06167 -2.79558,-4.21051 -1.10566,-0.87424 -2.28272,-1.39293 -3.65994,-1.73809 -1.41701,-0.35916 -2.92141,-0.0773 -4.37734,-0.0869 -1.61943,0.1574 -3.19349,0.46004 -4.67071,1.18068 -7.47779,3.59224 -0.29118,0.1711 17.63743,-10.35911 0.28963,-0.17011 -0.62344,0.25733 -0.91053,0.43169 -0.62494,0.37953 -1.26006,0.7418 -1.49394,1.4467 -0.30878,0.15445 -0.71858,0.16245 -0.94566,0.42251 -0.4715,0.53998 -0.19741,1.60847 -1.07956,1.90579 0.38171,8.7413 -13.45385,13.9112 -21.71471,12.52519 -2.34616,-0.34947 -4.65337,-0.9512 -6.8631,-1.81914 -2.26114,-0.94366 -4.48413,-2.06766 -6.47044,-3.5098 -1.35947,-1.02494 -2.7278,-1.98481 -3.05645,-3.76225 -0.5335,-1.64777 -1.25784,-3.22369 -1.60689,-4.9207 -0.53792,-1.38558 -1.33432,-2.62303 -1.95573,-3.96787 -0.63636,-1.49869 -0.76911,-2.92347 -0.67973,-4.54509 41.05026,-27.52482 12.80275,-17.37855 20.18969,-12.25662 0.97393,0.66268 1.82274,1.45107 2.36351,2.52217 0.66032,2.23346 1.29452,4.43885 1.01562,6.79903 0.003,2.93325 0.007,5.86649 0.0159,8.79973 0.006,2.72785 -0.011,5.45515 -0.0426,8.18274 -0.0119,3.84359 -0.0263,7.68889 0.19573,11.52799 0.27389,3.91854 0.71081,7.81634 1.49471,11.66982 0.19428,3.43673 0.58533,6.85207 1.21529,10.23834 0.62327,4.3097 0.56416,8.70413 1.39822,12.99545 0.87485,6.07036 1.30472,12.17754 1.93782,18.27726 0.21699,4.42886 0.53028,8.84984 1.10971,13.24823 0.2552,3.61564 -0.35284,7.20083 -0.78787,10.78717 0,0 -20.67845,10.0271 -20.67845,10.0271 z"
       inkscape:connector-curvature="0" />
    <path
       style="opacity:1;fill:#ec0a1a;fill-opacity:1;stroke:#bd4747;stroke-width:4.69999981;stroke-linecap:round;stroke-linejoin:round;stroke-miterlimit:4;stroke-dasharray:none;stroke-dashoffset:0;stroke-opacity:1"
       id="path6075"
       d="m 440.3766,989.48206 c -1.0608,3.95844 -2.87521,7.66374 -4.87582,11.22204 -1.67206,2.6464 -3.79708,4.9709 -5.92131,7.2571 -7.44833,7.5769 -16.94823,11.4535 -26.30486,16.841 -2.07608,0.4117 -4.22493,0.3479 -6.33416,0.325 -3.54269,-0.1968 -7.07505,-1.2112 -10.40721,-2.4166 -3.28207,-1.4206 -6.34718,-3.2158 -8.77175,-5.8596 -2.83162,-2.4466 -5.02046,-5.4289 -7.03423,-8.5576 -2.55645,-4.0754 -4.61618,-8.35784 -6.10598,-12.92665 -1.237,-4.95355 -1.51749,-10.06616 -1.72958,-15.14648 -0.26038,-4.59001 0.0761,-9.1159 1.36199,-13.52911 1.64799,-4.34583 3.92665,-8.43364 6.40347,-12.35644 2.82451,-4.15837 6.37015,-7.73578 9.69844,-11.47793 1.95561,-2.46876 3.94408,-4.91218 6.25439,-7.05916 1.74923,-1.51074 3.37377,-3.1437 5.11031,-4.67119 8.26082,-4.36189 16.71063,-12.12022 26.59518,-13.82687 1.4103,-1.23935 3.11186,-1.42104 4.90449,-1.52972 1.64901,-0.0994 3.30587,-0.19204 4.95896,-0.16826 1.74356,-0.18021 2.93967,1.06726 4.30338,1.95368 1.1981,0.66751 2.26524,1.35431 3.44362,1.99184 0.72427,0.37143 1.4535,0.74176 2.21716,1.02681 4.44793,0.26812 29.57208,-16.8596 -19.72216,11.17586 -0.12563,-2.43999 0.49727,-4.80003 0.92127,-7.18064 0.49334,-1.96729 0.35541,-3.73937 -0.18717,-5.64955 -0.53752,-2.3977 -0.59308,-4.89301 -0.62171,-7.34317 0.17393,-3.31954 -0.27482,-6.49059 -0.98473,-9.72004 -0.68788,-3.57637 -1.89505,-7.02194 -3.00794,-10.48203 -0.63038,-1.95185 -0.67742,-3.99833 -0.75412,-6.02782 -0.0434,-1.19875 -0.0356,-2.39838 -0.0737,-3.59748 0.004,-0.19204 -0.0176,-0.38423 -0.0405,-0.57277 23.69603,-12.86535 20.48469,-16.21048 20.57488,-4.50676 0.007,2.57024 -0.0397,5.14038 -0.009,7.7105 -0.13278,2.76738 0.0643,5.4597 0.69711,8.15568 1.03003,3.19042 2.172,6.31999 2.93316,9.59012 0.73266,3.78782 1.4773,7.56835 2.00999,11.39074 0.54608,3.22286 0.48713,6.49193 0.4664,9.74705 -0.0385,4.06269 0.17157,8.12356 -0.14852,12.1765 -0.44465,3.79952 -0.8643,7.60103 -1.16184,11.4151 -0.14523,2.88348 -0.1593,5.77074 -0.18695,8.65703 -0.0492,3.77697 -0.0587,7.55466 -0.0473,11.33196 -0.35787,4.82889 0.26268,9.59814 0.8697,14.37393 0.18381,2.76884 0.9107,5.42207 1.55805,8.10294 0.44337,2.21759 0.98486,4.41234 1.66222,6.57129 0.63648,2.10616 1.85026,3.83746 3.27241,5.47764 1.91352,2.0475 3.82808,4.0694 5.57883,6.26 1.35002,1.2508 2.78678,2.6292 4.43,3.4915 1.3053,0.7509 2.45174,1.5647 3.96946,1.8255 1.41362,0.2522 2.86058,0.2005 4.29163,0.1813 1.56457,-0.1504 3.35214,0.4233 4.73702,-0.4057 11.0417,-4.2058 -26.0209,15.7449 -15.42769,8.8745 0.89073,-0.6103 1.75691,-1.255 2.62068,-1.9025 0,0 21.51077,-8.5598 21.51077,-8.5598 l 0,0 c -0.90755,0.6866 -1.83081,1.3523 -2.74328,2.0323 -7.28418,5.5544 -15.17797,11.4785 -24.26177,13.4992 -1.7059,-0.027 -3.41135,-0.01 -5.11705,-0.026 -1.55893,-0.089 -3.13514,-0.1571 -4.61427,-0.7121 -1.54088,-0.6187 -2.93702,-1.493 -4.33811,-2.3762 -1.68091,-1.2687 -3.37705,-2.546 -4.68723,-4.2161 -1.70703,-2.2252 -3.76781,-4.0883 -5.65199,-6.1564 -1.4976,-1.9235 -2.94201,-3.847 -3.60091,-6.2398 -0.79494,-2.1917 -1.4583,-4.4524 -1.81876,-6.755 -0.59856,-2.79616 -1.48047,-5.53085 -1.49543,-8.42038 -0.49759,-4.85391 -1.10767,-9.70628 -1.00083,-14.59661 0.006,-3.76174 -0.0146,-7.52367 -0.0613,-11.2851 -0.013,-2.93596 0.003,-5.87323 0.18252,-8.80507 0.17491,-3.86232 0.79227,-7.67392 1.22823,-11.51248 0.37956,-3.97767 0.17496,-7.98726 0.22768,-11.97953 -0.0628,-3.16088 -0.11589,-6.3266 -0.40673,-9.47663 -0.41603,-3.77724 -1.16876,-7.4765 -1.91267,-11.19693 -0.69479,-3.26663 -1.9306,-6.32462 -2.8976,-9.51274 -0.815,-2.83385 -1.29454,-5.66122 -1.07422,-8.62012 0.0303,-2.56723 -0.0158,-5.13448 -0.008,-7.70183 0.0943,-12.04545 -2.02279,-5.81067 20.57335,-16.34287 -0.0295,0.14221 -0.0654,0.37182 -0.0601,0.53826 -0.0649,1.20003 -0.0745,2.40084 -0.0897,3.60226 -0.002,1.85034 0.0141,3.71686 0.43462,5.52904 0.87856,3.58363 2.07277,7.08095 2.82527,10.69448 0.84503,3.34221 1.71018,6.56979 1.37017,10.05752 0.0738,2.25736 0.0546,4.54636 0.50944,6.76713 0.5802,2.20109 1.1174,4.31706 0.4868,6.59414 -0.32176,2.24906 -1.03657,4.45462 -0.90888,6.72546 -6.60458,4.13407 -13.20915,8.26814 -19.81373,12.40222 -0.0977,-0.12741 -0.17828,-0.22693 -0.33065,-0.29475 -0.73819,-0.42439 -1.48739,-0.82959 -2.21849,-1.26637 -1.14312,-0.71042 -2.38432,-1.26599 -3.46056,-2.10103 -1.21025,-0.7745 -2.18116,-0.98525 -3.6024,-0.80747 -1.56921,0.055 -3.14456,0.0703 -4.69387,0.36291 -1.67772,0.40709 -3.11602,1.378 -4.81928,1.65776 -8.13634,2.15988 -21.06172,13.01461 13.05575,-8.45963 -2.09181,1.07813 -3.54181,2.93234 -5.28105,4.44465 -2.44984,2.03257 -4.68334,4.26629 -6.57164,6.84724 -3.17744,3.81541 -6.87922,7.1816 -9.80939,11.21201 -2.5659,3.72043 -4.73794,7.69479 -6.64881,11.78982 -1.4739,4.1599 -2.01966,8.41807 -1.69771,12.8358 0.0771,4.89463 0.22559,9.8315 1.39938,14.60926 1.34491,4.39021 3.38513,8.46258 5.80015,12.36617 2.03944,2.94395 4.29072,5.70481 6.95654,8.11221 2.33497,2.2122 5.07682,3.9049 8.1109,5.0007 3.29143,1.0031 6.67496,1.8579 10.14651,1.6641 1.95976,-0.073 4.00217,-0.091 5.69713,-1.2118 -34.54021,20.0278 -19.62708,12.4459 -12.62376,6.3384 2.10905,-2.2147 4.10643,-4.5182 6.11979,-6.8139 2.09144,-3.2571 3.97486,-6.6685 5.02108,-10.4214 0,0 20.67845,-10.0271 20.67845,-10.0271 z"
       inkscape:connector-curvature="0" />
    <path
       style="opacity:1;fill:#ec0a1a;fill-opacity:1;stroke:#bd4747;stroke-width:4.69999981;stroke-linecap:round;stroke-linejoin:round;stroke-miterlimit:4;stroke-dasharray:none;stroke-dashoffset:0;stroke-opacity:1"
       id="path6077"
       d="m 532.76785,933.26365 c -0.854,-2.9262 -2.2367,-5.83512 -4.72803,-7.68234 -2.17376,-1.76164 -4.75963,-2.78413 -7.13294,-4.19013 -2.89782,-1.6727 -6.12111,-2.49014 -9.40912,-2.92746 -1.4285,0.0864 -2.31925,0.46409 -3.45561,1.28101 -0.38195,0.27457 -1.5613,1.04692 -1.15195,0.81517 17.84187,-10.10108 23.97698,-14.78242 16.97642,-9.5346 -2.73908,2.18694 -4.43468,4.96785 -5.36876,8.29886 -1.00107,4.19615 -1.64952,8.4726 -2.0133,12.7693 -0.11544,3.71756 1.81388,7.10862 3.5773,10.26248 2.11649,3.57342 5.26073,6.34797 8.10552,9.32898 3.35594,3.4692 6.73879,6.89523 10.08084,10.38299 4.64127,4.60441 8.48342,9.90535 12.32942,15.16659 3.4827,3.98085 5.35702,8.77782 6.90047,13.75355 1.33503,4.05268 1.58798,8.2074 1.00049,12.40575 -0.86785,3.4324 -3.27866,6.1051 -5.79226,8.4767 -8.71995,6.7189 -18.23787,12.132 -28.71635,15.1273 -3.01578,0.6119 -6.00708,0.953 -8.97446,1.7516 -2.91795,0.7294 -5.92881,0.7722 -8.91503,0.8863 -2.94639,0.091 -5.89366,0.065 -8.84083,0.055 -1.60182,0.147 -2.64069,0.05 -4.07277,-0.6496 0,0 18.96402,-12.8764 18.96402,-12.8764 l 0,0 c 1.19443,0.111 2.38571,0.099 3.58522,0.1033 2.92498,-0.01 5.85131,-0.016 8.77421,-0.1351 2.93058,-0.1532 5.84926,-0.4811 8.68262,-1.2818 2.93149,-0.6757 5.98281,-0.7791 8.8368,-1.812 1.48551,-0.5028 3.01233,-0.9613 4.44965,-1.5947 0.51064,-0.225 1.98534,-1.0171 1.50502,-0.733 -5.96316,3.5263 -11.97191,6.9749 -17.95787,10.4623 0.49489,-0.2937 0.98979,-0.5873 1.48468,-0.881 2.74566,-1.5637 4.86923,-4.2509 6.43208,-6.9702 1.15079,-3.7561 0.77517,-7.7356 -0.27392,-11.4775 -1.43665,-4.75982 -3.23017,-9.27894 -6.41228,-13.17891 -3.73025,-5.22024 -7.51959,-10.43951 -12.20129,-14.86592 -3.39287,-3.46051 -6.97972,-6.725 -10.21451,-10.33735 -2.94956,-3.16391 -6.3909,-5.89587 -8.44588,-9.78478 -1.95871,-3.55124 -4.07461,-7.30314 -4.32492,-11.42512 0.4919,-4.37673 1.17376,-8.72157 1.97932,-13.05229 0.6273,-3.76536 1.95224,-6.8813 4.67819,-9.64128 7.11289,-6.50147 1.2407,-1.28648 21.95299,-13.38938 1.71881,-1.00436 3.64342,-1.14052 5.56922,-0.82708 3.41113,0.73322 6.71114,1.84791 9.76044,3.57301 2.63618,1.27168 5.17304,2.69147 7.44935,4.55399 2.51213,2.34551 4.18368,5.38881 5.38152,8.59533 0,0 -20.05371,11.19852 -20.05371,11.19852 z"
       inkscape:connector-curvature="0" />
    <path
       style="opacity:1;fill:#ec0a1a;fill-opacity:1;stroke:#bd4747;stroke-width:4.69999981;stroke-linecap:round;stroke-linejoin:round;stroke-miterlimit:4;stroke-dasharray:none;stroke-dashoffset:0;stroke-opacity:1"
       id="path6079"
       d="m 687.79411,912.50366 c -6.42556,1.11122 -12.77103,2.63695 -19.11437,4.14206 -3.00932,0.52154 -5.94853,1.55146 -8.61677,3.05078 -0.71267,0.40046 -2.78483,1.71193 -2.07108,1.31341 5.65641,-3.15823 11.26797,-6.39611 16.90195,-9.59417 -5.9207,4.27037 -10.04264,10.32259 -13.96967,16.35491 -3.27366,4.98192 -4.82093,10.59583 -5.19798,16.48432 0.25392,6.71586 2.10224,13.23877 3.55913,19.76477 1.46237,6.91579 2.49935,13.89645 3.12384,20.93449 0.86811,6.97983 0.3757,13.73878 -1.69753,20.43787 -2.1125,6.2407 -5.37898,11.7605 -9.45548,16.8868 -10.26269,11.1957 -24.06537,17.2609 -37.17625,24.6046 -4.37879,2.0732 -9.0215,3.3318 -13.76431,4.2032 0,0 18.13453,-13.7111 18.13453,-13.7111 l 0,0 c 4.5094,-0.915 8.87865,-2.3421 13.02003,-4.3711 -5.1675,3.0716 -10.34444,6.1274 -15.50249,9.2148 -1.07318,0.6424 2.1958,-1.2026 3.24757,-1.8794 4.13489,-2.6608 7.84823,-5.9468 11.43948,-9.283 4.10931,-4.9027 7.55446,-10.1176 9.8199,-16.1511 2.24076,-6.4008 2.91918,-12.8718 2.10205,-19.63515 -0.5559,-6.94786 -1.56323,-13.82011 -3.04562,-20.63368 -1.49048,-6.69864 -3.15057,-13.3996 -3.8909,-20.2305 0.0253,-6.23212 1.57221,-12.27689 4.80754,-17.6517 3.9721,-6.08316 7.90315,-12.33142 13.49172,-17.09294 10.70387,-6.37416 20.30822,-14.33725 32.60473,-16.61945 6.53152,-1.43656 13.05247,-2.9216 19.572,-4.41115 0,0 -18.32202,13.87243 -18.32202,13.87243 z"
       inkscape:connector-curvature="0" />
    <path
       style="opacity:1;fill:#ec0a1a;fill-opacity:1;stroke:#bd4747;stroke-width:4.69999981;stroke-linecap:round;stroke-linejoin:round;stroke-miterlimit:4;stroke-dasharray:none;stroke-dashoffset:0;stroke-opacity:1"
       id="path6081"
       d="m 653.2037,974.28354 c -8.53115,0.50151 -17.07553,0.66361 -25.61796,0.83821 -7.32475,-0.0356 -14.60679,0.84955 -21.88419,1.56579 -2.22639,0.23931 -2.57843,0.65416 -3.88566,-1.18703 0,0 20.19353,-11.33974 20.19353,-11.33974 l 0,0 c -1.50476,-1.80079 0.45959,-0.47362 1.91569,-0.95383 7.12975,-0.52092 14.2667,-1.07308 21.42065,-1.04527 8.73517,-0.18583 17.50595,-0.36878 26.17551,-1.53784 0,0 -18.31757,13.65971 -18.31757,13.65971 z"
       inkscape:connector-curvature="0" />
    <path
       style="opacity:1;fill:#ec0a1a;fill-opacity:1;stroke:#bd4747;stroke-width:4.69999981;stroke-linecap:round;stroke-linejoin:round;stroke-miterlimit:4;stroke-dasharray:none;stroke-dashoffset:0;stroke-opacity:1"
       id="path6083"
       d="m 692.40357,1026.8931 c 1.33537,-5.6174 1.07342,-11.2652 0.33089,-16.9358 -1.08473,-7.2223 -2.29466,-14.42489 -3.3191,-21.65625 -0.86515,-6.24712 -1.33013,-12.5325 -1.45343,-18.83477 -0.0712,-6.66709 -0.0519,-13.33435 -0.12458,-20.00144 -0.34873,-4.79044 -0.80394,-9.58806 -1.43035,-14.35189 -0.59015,-3.06501 -1.21979,-6.11418 -1.61694,-9.21093 -0.12089,-0.9316 -0.21494,-1.86651 -0.33515,-2.79814 -2.67064,-7.55796 19.98259,-17.91331 20.66389,-9.50371 0.051,0.50124 -0.0134,1.00828 -0.05,1.50949 0.69254,1.23597 1.02684,2.65125 1.27396,4.03625 0.52289,1.33763 1.01639,2.67446 1.40989,4.05818 0.53019,0.41187 1.07412,0.75857 1.61248,1.19942 0.87015,0.6001 1.84501,0.40161 2.70868,1.03329 2.09177,1.80157 4.48177,2.83363 7.10107,3.60024 1.91421,0.92678 3.77852,1.70366 5.88266,2.00264 12.39553,-6.62669 -23.68101,13.24024 -15.8037,9.16051 1.27451,-1.47262 2.80122,-2.67762 4.07304,-4.15173 1.71011,-1.86491 3.07658,-3.98809 4.72809,-5.91041 7.0031,-6.95195 16.19217,-11.64156 25.36146,-15.26041 3.97601,-1.27151 8.10873,-1.83145 12.25572,-2.14044 2.31844,-0.17899 4.64429,-0.22018 6.96851,-0.22641 0.61736,0.003 1.2352,-0.0151 1.85226,0.006 0.0185,0.003 0.037,0.006 0.0554,0.009 0,0 -18.82411,13.55486 -18.82411,13.55486 l 0,0 c -0.0114,0.002 -0.0229,0.003 -0.0343,0.005 -0.56044,-0.0108 -1.12061,-0.04 -1.68134,-0.0408 -2.2123,-0.01 -4.4256,0.0453 -6.63079,0.23361 -4.03843,0.42188 -8.0871,1.08213 -11.82364,2.75018 -7.84343,3.85178 -3.66285,1.84722 16.79152,-9.9873 3.18349,-1.84191 -5.91806,4.0726 -3.12268,2.21347 -1.7936,1.85658 -3.46199,3.74301 -4.75313,5.98081 -1.38305,1.29336 -2.37641,2.9601 -3.99566,4.04591 -3.27845,6.55105 -15.4642,13.80739 -24.29548,12.8946 -2.06952,-0.55268 -3.92238,-1.5797 -5.93378,-2.29833 -2.62626,-0.98445 -5.00663,-2.33758 -7.42347,-3.73519 -1.11742,-0.004 -2.14991,-0.78836 -2.99158,-1.44369 -0.95563,-0.71586 -1.8753,-1.36484 -2.36215,-2.53087 -0.31105,-1.48923 -0.82296,-2.89122 -1.49224,-4.25976 -0.14507,-1.26133 -0.38404,-2.52342 -1.09025,-3.60344 -0.32832,-0.73574 -0.51749,-1.38541 -0.37678,-2.1831 0.59493,-8.15501 25.04801,-9.93369 20.57882,-11.57368 -0.0798,0.90931 -0.0127,1.82495 0.0304,2.73502 0.23204,3.11245 0.78567,6.18086 1.32797,9.25198 0.77078,4.86428 0.98541,9.81367 1.44191,14.71512 -0.0831,6.6566 -0.0947,13.31533 0.0558,19.971 0.19159,6.2198 0.41104,12.45154 1.28644,18.62088 1.0755,7.23939 1.92792,14.50759 3.17324,21.72209 0.96811,5.76484 1.57121,11.44064 0.6073,17.25374 0,0 -20.60683,10.0745 -20.60683,10.0745 z"
       inkscape:connector-curvature="0" />
    <path
       style="opacity:1;fill:#ec0a1a;fill-opacity:1;stroke:#bd4747;stroke-width:4.69999981;stroke-linecap:round;stroke-linejoin:round;stroke-miterlimit:4;stroke-dasharray:none;stroke-dashoffset:0;stroke-opacity:1"
       id="path6085"
       d="m 784.08148,960.52632 c 4.30937,0.1909 8.45824,-0.87549 12.31973,-2.71912 7.19298,-3.56099 18.65527,-10.17144 -13.28962,7.8793 -0.58448,0.33026 1.14532,-0.70151 1.70218,-1.07648 1.04736,-0.70528 1.6732,-1.23143 2.65639,-2.01061 2.55497,-2.20085 4.26643,-5.1796 5.64789,-8.21396 1.07592,-2.85447 1.20422,-5.9076 1.34917,-8.91837 0.19198,-3.58096 -0.0733,-5.14371 -2.68099,-7.58204 -2.52851,-1.9701 -5.62787,-2.29059 -8.71059,-2.53164 -3.47272,-0.19927 -6.95246,1.12256 -10.12726,2.44809 -0.4799,0.21661 -0.95263,0.44988 -1.43972,0.64982 -1.56323,0.64172 -1.20401,0.31448 -2.66067,1.1641 -0.43658,0.25464 -1.70789,1.08038 -1.2685,0.83062 17.84869,-10.14545 23.87488,-14.49806 16.67953,-9.38449 -3.26885,2.3465 -5.82204,5.43784 -8.40163,8.48131 -2.13121,2.37716 -3.76765,5.1372 -5.30356,7.9214 -2.11167,3.92379 -3.2083,8.22501 -4.08243,12.5625 -0.90358,5.11989 -1.2881,10.3293 -1.10541,15.52309 0.31868,4.72149 1.48356,9.32025 3.41482,13.62938 2.33577,4.19963 5.89541,7.61726 9.32572,10.93778 2.01538,2.2894 4.3885,4.2146 6.96207,5.829 2.68189,1.1732 5.36559,1.9199 8.27397,2.266 8.99953,-1.6345 25.24361,-12.51635 -8.96636,7.0258 3.11211,-1.6161 5.70229,-3.9287 8.39052,-6.1344 2.86845,-2.2238 5.41194,-4.7901 7.97175,-7.3479 2.00459,-1.78034 3.85666,-3.6457 5.48706,-5.77293 2.54862,-3.64137 4.54827,-7.61721 6.71308,-11.48639 0.55074,-0.93881 1.18053,-1.82539 1.82293,-2.70224 0,0 21.20694,-8.9612 21.20694,-8.9612 l 0,0 c -0.78828,0.77428 -1.53737,1.58396 -2.18802,2.48095 -2.56322,3.62246 -4.28198,7.79962 -6.64129,11.55908 -1.45622,2.34793 -3.06518,4.46948 -5.261,6.18478 -2.72162,2.48157 -5.09478,5.30773 -8.05162,7.53955 -2.66477,2.2785 -5.16975,4.7204 -8.2097,6.4829 -8.5108,4.8729 -19.55789,14.3278 -30.8905,14.2496 -3.14797,-0.5375 -6.17821,-1.4884 -8.98779,-3.0354 -2.53993,-1.8602 -4.89657,-3.9216 -6.93563,-6.3357 -3.55667,-3.6044 -7.27685,-7.1809 -9.72739,-11.6663 -2.05388,-4.5536 -3.44756,-9.37886 -3.78371,-14.38456 -0.35269,-5.33949 0.10184,-10.73269 0.88482,-16.01914 0.80241,-4.41848 1.55183,-8.94142 3.62565,-12.97431 1.2175,-3.05646 3.10855,-5.93238 5.11995,-8.50332 2.62217,-3.06248 5.04039,-6.33333 8.18123,-8.89869 8.15752,-6.86256 17.84843,-11.9546 27.79371,-15.7412 3.51612,-1.12205 7.04021,-2.23924 10.78096,-1.62381 3.50321,0.49483 6.85205,1.32937 9.54762,3.7826 2.77014,2.76285 3.82754,5.25583 3.62097,9.22055 -0.0157,3.23162 -0.25855,6.48327 -1.05016,9.62639 -1.06609,3.38923 -3.01602,6.47321 -5.17963,9.27112 -8.68753,7.79545 -19.48654,12.8484 -30.00275,17.78738 -4.21579,1.51601 -8.60329,2.22565 -13.09269,2.17571 0,0 18.55996,-13.4846 18.55996,-13.4846 z"
       inkscape:connector-curvature="0" />
    <path
       style="opacity:1;fill:#ec0a1a;fill-opacity:1;stroke:#bd4747;stroke-width:4.69999981;stroke-linecap:round;stroke-linejoin:round;stroke-miterlimit:4;stroke-dasharray:none;stroke-dashoffset:0;stroke-opacity:1"
       id="path6087"
       d="m 872.21199,960.01341 c 4.06233,-2.29581 7.54286,-5.43393 10.85541,-8.68455 2.9999,-3.00316 5.97518,-6.02363 8.87763,-9.12137 2.34692,-2.64263 3.83008,-5.93237 4.95275,-9.25382 0.79105,-3.04999 1.31228,-6.22844 0.84094,-9.36467 -0.66666,-2.3027 -2.80175,-2.8202 -4.9175,-3.24215 -3.42435,-0.75914 -6.72051,-0.16384 -9.84322,1.32267 -7.85923,4.8845 2.95767,-1.86526 16.22955,-9.19454 0.61889,-0.34177 -1.15351,0.82059 -1.69343,1.277 -1.66081,1.40393 -3.1614,3.03725 -4.742,4.53076 -2.68237,2.80406 -5.12148,5.83005 -7.40598,8.96404 -2.6539,3.63099 -4.86396,7.53582 -6.94362,11.51333 -3.21759,6.04573 -6.33155,12.13014 -9.14248,18.37608 -2.48563,5.06811 -4.08338,10.32696 -4.77277,15.90972 -0.50768,4.66823 -0.0979,9.34798 1.53563,13.75341 1.01954,2.80117 2.76514,5.23079 4.37506,7.71128 1.55601,1.87909 3.29258,3.62053 5.64489,4.4041 1.07066,0.50171 2.29818,0.12225 3.40096,0.34377 0.71734,0.14409 1.38779,0.46567 2.09124,0.6669 2.37968,0.87213 4.54043,0.31853 6.93314,-0.0796 1.78131,-0.13911 3.45982,-0.80036 4.97693,-1.71575 0.33891,-0.20449 1.35114,-0.82497 1.00754,-0.62845 -6.19991,3.54593 -12.38479,7.11803 -18.57719,10.67713 2.46581,-1.3395 4.47837,-3.1473 6.38843,-5.1725 1.91546,-2.2752 3.64652,-4.70426 5.46322,-7.06121 2.03756,-3.15556 3.69721,-6.53805 5.33568,-9.91298 2.05154,-3.62987 3.79406,-7.4163 5.70417,-11.11856 1.61279,-2.97159 3.2177,-5.94701 4.77728,-8.94693 1.72308,-3.57293 3.54254,-7.08979 5.52552,-10.52462 1.94737,-3.75522 4.65114,-7.04154 7.13956,-10.44229 2.11036,-2.9115 3.7767,-6.13793 5.94293,-9.00622 0.66944,-0.79955 0.32158,-0.45297 1.02371,-1.05927 0,0 21.16779,-9.08111 21.16779,-9.08111 l 0,0 c -0.52946,0.96359 -0.18292,0.54803 -1.04264,1.24417 -2.66663,2.51299 -4.29193,5.90973 -6.35394,8.90398 -2.3536,3.40307 -5.03548,6.59418 -7.10833,10.17497 -1.90969,3.42445 -3.988,6.75658 -5.5202,10.38107 -1.44792,3.07291 -3.12031,6.04083 -4.78915,8.9969 -1.92597,3.71417 -3.71623,7.49417 -5.81225,11.12115 -1.69756,3.37734 -3.25253,6.82612 -5.03001,10.16408 -1.63965,2.53668 -3.79684,4.70935 -5.33113,7.32888 -1.86812,2.0756 -3.58841,4.39461 -6.14404,5.65882 -9.0997,5.31457 -16.73766,12.36937 -27.06482,13.74227 -2.57514,0.3293 -5.0262,0.1681 -7.51398,-0.6282 -1.91074,-0.4403 -3.95036,-0.3512 -5.71809,-1.3325 -2.47836,-1.3655 -4.52166,-3.3176 -6.24257,-5.5586 -1.73246,-2.6114 -3.50804,-5.2344 -4.5548,-8.21338 -1.71152,-4.73913 -2.22974,-9.75003 -1.77473,-14.77149 0.43347,-6.03013 1.80776,-11.25588 4.65537,-16.65099 2.73731,-6.23591 5.65943,-12.35682 8.82006,-18.38856 2.09233,-3.98204 3.97047,-8.07959 6.69359,-11.70064 2.1746,-3.34479 4.76254,-6.31779 7.24241,-9.42984 0.16786,-0.15464 3.02143,-2.7806 3.16799,-2.92723 0.21907,-0.21917 2.77045,-3.03156 3.0851,-3.22464 18.05533,-11.07943 13.92703,-9.18701 22.87428,-13.1126 3.53784,-1.02721 7.14071,-1.26449 10.72065,-0.21246 2.92936,0.9421 5.39042,2.32325 6.34548,5.43517 0.63734,3.47105 0.1473,6.89502 -0.47932,10.35066 -0.95397,3.63006 -2.51026,7.08642 -4.56534,10.23409 -2.94127,3.1381 -5.8825,6.25961 -8.98353,9.23561 -3.18717,3.29784 -6.49375,6.5199 -10.31708,9.07952 0,0 -21.41075,8.26016 -21.41075,8.26016 z"
       inkscape:connector-curvature="0" />
    <path
       style="opacity:1;fill:#ec0a1a;fill-opacity:1;stroke:#bd4747;stroke-width:4.69999981;stroke-linecap:round;stroke-linejoin:round;stroke-miterlimit:4;stroke-dasharray:none;stroke-dashoffset:0;stroke-opacity:1"
       id="path6239"
       d="m 195.37478,1089.5264 c -1.22379,-3.8343 -4.20228,-5.5686 -7.74079,-6.9687 -4.1103,-1.4294 -8.19778,-2.5915 -12.52603,-3.0723 -4.94192,-0.6742 -9.82473,-0.1512 -14.73667,0.4126 -4.26933,0.331 -8.30123,1.4854 -12.01281,3.6031 32.05845,-18.3006 18.59477,-12.955 13.98148,-5.9357 -2.02603,3.0827 -3.24496,6.497 -4.53791,9.9236 -2.09895,5.3463 -3.13967,10.939 -3.6641,16.6291 -0.71312,5.5784 0.48056,10.431 3.67939,14.99 3.88953,5.2885 9.72825,7.653 15.6659,9.8656 8.20102,2.8025 16.19587,6.1843 23.9843,9.9778 5.82293,3.4082 12.61909,6.4463 16.65931,12.1277 0.77962,1.0963 1.33757,2.3345 2.00636,3.5017 2.58633,6.0986 4.16083,12.6651 2.98788,19.2587 -1.60882,5.6143 -6.45312,8.9267 -11.09066,11.9889 -17.35499,10.5744 -22.82251,15.2556 -40.5565,15.0502 -10.20103,-0.671 -20.31243,-2.1934 -30.47289,-3.2696 -7.17548,-0.9752 -14.33307,-2.0545 -21.36897,-3.7822 0,0 18.57216,-12.793 18.57216,-12.793 l 0,0 c 6.85065,1.8406 13.89172,2.699 20.89689,3.7446 10.06547,1.2953 20.12081,2.9555 30.29523,3.0429 3.96399,-0.1504 7.81072,-0.3814 11.68422,-1.3142 7.78115,-1.8737 20.2388,-9.9053 -9.92414,7.4055 4.4673,-2.5734 9.14912,-5.5064 11.5099,-10.2694 1.9647,-5.9707 0.53302,-12.2463 -1.83957,-17.9129 -0.6039,-1.0313 -1.10854,-2.1276 -1.81171,-3.094 -3.92728,-5.3975 -10.4151,-8.3174 -16.04978,-11.4842 -7.76033,-3.7846 -15.7989,-6.9741 -23.97909,-9.7355 -6.3392,-2.4309 -12.51435,-5.1684 -16.59953,-10.8705 -3.43688,-4.974 -5.07177,-10.2352 -4.40973,-16.3408 0.32736,-5.9392 1.40672,-11.7475 3.60286,-17.3057 6.65737,-18.0742 6.64263,-15.4371 28.50653,-27.5818 3.95703,-1.7284 8.151,-2.6258 12.46093,-2.9238 5.02141,-0.4978 10.04081,-0.6623 15.06373,0.01 4.44505,0.6494 8.66325,2.0127 12.86151,3.6002 4.00457,1.8303 7.1701,4.1521 8.95601,8.3262 0,0 -20.05371,11.1985 -20.05371,11.1985 z"
       inkscape:connector-curvature="0" />
    <path
       style="opacity:1;fill:#ec0a1a;fill-opacity:1;stroke:#bd4747;stroke-width:4.69999981;stroke-linecap:round;stroke-linejoin:round;stroke-miterlimit:4;stroke-dasharray:none;stroke-dashoffset:0;stroke-opacity:1"
       id="path6241"
       d="m 285.19031,1137.0787 c -0.26214,-3.5257 -1.5028,-6.5072 -4.50759,-8.4647 -3.22835,-1.5083 -6.86051,-1.4892 -10.35339,-1.5612 -3.9788,-0.3778 -7.75637,0.7394 -11.58949,1.5838 -8.82549,2.7311 -27.76543,14.3871 6.92224,-5.3848 -4.95737,3.0694 -7.85307,8.1711 -10.61995,13.1255 -2.78224,4.8509 -4.80176,10.0417 -6.00174,15.4939 -0.80572,4.2907 -0.87201,8.6474 -0.2476,12.9563 1.14989,5.5499 2.92507,9.7696 6.93638,13.7941 5.03958,3.8574 10.92133,5.9697 17.08116,7.1749 5.65202,1.1811 11.18115,0.5781 16.77707,-0.4738 4.53796,-0.5973 8.75529,-2.0143 12.60463,-4.4821 -31.73841,19.4069 -19.69074,11.7399 -12.92417,6.8884 0,0 21.35503,-8.4104 21.35503,-8.4104 l 0,0 c -8.51127,5.8124 -15.37942,12.2064 -26.07723,15.7841 -4.1036,2.026 -8.37371,3.2307 -12.93172,3.7505 -5.77698,0.8954 -11.5615,1.1754 -17.30121,-0.2233 -6.43104,-1.5832 -12.56727,-4.1325 -17.82249,-8.2481 -4.38057,-4.555 -6.13609,-8.8655 -7.64294,-14.9626 -0.88546,-4.5361 -0.94011,-9.077 -0.25744,-13.6611 1.16541,-5.6851 3.2404,-11.1199 6.02253,-16.2155 2.65394,-5.0813 5.33682,-10.4212 9.88188,-14.085 10.14449,-5.8717 20.58858,-13.4711 32.28121,-16.5452 3.96118,-0.9113 7.93689,-1.5371 12.01927,-1.1677 3.86472,0.2155 7.81691,0.4828 11.14094,2.6866 3.1081,2.5661 4.97059,5.8689 5.51751,9.8978 0,0 -20.26289,10.7496 -20.26289,10.7496 z"
       inkscape:connector-curvature="0" />
    <path
       style="opacity:1;fill:#ec0a1a;fill-opacity:1;stroke:#bd4747;stroke-width:4.69999981;stroke-linecap:round;stroke-linejoin:round;stroke-miterlimit:4;stroke-dasharray:none;stroke-dashoffset:0;stroke-opacity:1"
       id="path6243"
       d="m 325.51242,1189.5148 c 0.13628,-3.5867 0.11345,-7.1765 0.0419,-10.7643 -0.0526,-2.6999 -0.0445,-5.3969 0.0342,-8.096 0.20305,-5.2966 0.11341,-10.5841 -0.27261,-15.8679 -0.56126,-6.9686 -0.82453,-13.9516 -0.97648,-20.9391 -0.0771,-6.111 -0.11079,-12.2103 -0.5863,-18.3043 -0.50378,-5.5457 -0.81527,-11.1039 -1.09679,-16.664 -0.12759,-2.5815 -0.18339,-5.1655 -0.29781,-7.7475 -0.0181,-0.3778 -0.0257,-0.7592 -0.0855,-1.1314 6.9026,-3.0764 13.80519,-6.1529 20.70779,-9.2293 -0.44268,0.4634 -1.07482,0.519 -1.38174,0.9955 -0.26968,1.2433 -0.25302,2.5285 -0.25066,3.7948 -0.0603,1.9421 -0.0215,3.8856 -0.0349,5.8285 -0.11366,1.7339 0.0948,3.3346 0.5667,4.9908 0.37225,1.6624 0.90995,3.2377 1.67017,4.7615 0.30487,0.6914 1.29708,0.2516 2.00117,0.2206 2.59524,0.028 5.19019,0.01 7.78533,-0.014 1.44078,-0.2273 2.99924,0.2326 4.42943,-0.036 0.66846,-0.1256 1.28088,-0.461 1.9348,-0.6481 0.35546,-0.1848 0.72246,-0.349 1.06638,-0.5545 0.8267,-0.494 3.32292,-1.9487 2.48943,-1.4662 -32.43257,18.7731 -21.85264,13.059 -15.36058,8.6286 0.8617,-0.5959 1.59188,-1.1254 2.49957,-1.6532 6.93795,-4.0336 13.93379,-7.9679 20.84215,-12.052 6.02386,-3.5612 -24.37676,13.7504 -18.18849,10.4833 7.11416,-3.756 13.97747,-7.969 20.96783,-11.9507 0.4725,-0.2691 0.94717,-0.5344 1.42076,-0.8016 2.92963,-1.1179 5.67304,-2.7294 8.77336,-3.3101 3.06178,-0.3275 6.04633,-0.5009 9.03723,-1.2185 3.23352,-0.8258 6.45731,-0.6958 9.72317,-0.2528 3.12534,0.838 6.24485,1.7011 9.00652,3.4233 1.56446,0.989 2.80629,1.9527 3.55891,3.6287 0,0 -20.89833,9.9967 -20.89833,9.9967 l 0,0 c 1.6197,2.2384 -0.99405,-1.0054 -1.85022,-1.153 -2.63013,-1.3466 -5.47167,-2.2574 -8.39596,-2.6979 -3.16944,-0.2453 -6.28257,0.1195 -9.36861,0.8848 -2.96257,0.5443 -6.02372,0.4155 -8.92994,1.301 -2.87897,1.0487 -5.69963,2.3078 -8.42257,3.7091 -0.48934,0.2561 -1.94499,1.0467 -1.468,0.7683 6.04054,-3.5261 24.25626,-13.9412 18.16008,-10.5122 -7.01036,3.9432 -13.8455,8.1963 -20.90279,12.0549 -6.16457,3.3705 12.13507,-7.0846 18.22386,-10.5901 0.86595,-0.4986 -3.33863,2.1506 -2.55709,1.5643 -8.53691,6.2783 -17.66827,12.2221 -27.66751,15.6818 -2.18395,0.4179 -4.41983,0.1842 -6.63467,0.2352 -2.67078,0.01 -5.3437,0.048 -8.01319,-0.031 -1.44276,-0.232 -2.76105,-0.8294 -3.32411,-2.2935 -0.71782,-1.6598 -1.44776,-3.3172 -1.78455,-5.102 -0.54354,-1.8603 -1.11984,-3.5989 -0.84091,-5.5717 -0.0191,-1.9293 0.008,-3.8594 -0.0594,-5.7878 0.006,-1.3855 -4e-4,-2.7719 0.0561,-4.1565 -0.0146,-0.4986 -0.13229,-1.0048 -0.0441,-1.4957 0.0646,-0.3598 0.65197,-0.6183 0.74558,-0.9699 7.14616,-3.2773 14.29231,-6.5546 21.43846,-9.8319 -0.0551,0.3118 -0.1115,0.7465 -0.10293,1.0927 -0.10771,2.6186 -0.10145,5.2407 -0.0803,7.8609 0.0763,5.5509 0.3493,11.1002 0.89889,16.6255 0.59992,6.1638 0.50822,12.3185 0.51684,18.5088 0.13552,6.9224 0.34929,13.8508 1.03662,20.744 0.52374,5.3031 0.60307,10.5853 0.60845,15.9131 0.0808,2.6874 0.0851,5.3728 0.0342,8.0611 -0.0698,3.5735 -0.097,7.1492 0.0419,10.7216 0,0 -20.44092,10.4152 -20.44092,10.4152 z"
       inkscape:connector-curvature="0" />
    <path
       style="opacity:1;fill:#ec0a1a;fill-opacity:1;stroke:#bd4747;stroke-width:4.69999981;stroke-linecap:round;stroke-linejoin:round;stroke-miterlimit:4;stroke-dasharray:none;stroke-dashoffset:0;stroke-opacity:1"
       id="path6245"
       d="m 463.07681,1111.3497 c -2.70656,-0.6669 -5.48305,-0.9466 -8.25927,-1.1064 -2.97734,-0.2816 -5.7843,-0.042 -8.50586,1.2254 -0.59097,0.3413 -1.18194,0.6825 -1.77292,1.0237 1.12698,-0.8457 -4.87981,2.7731 -3.66239,2.0754 31.21939,-17.8918 20.43408,-12.4367 14.1323,-7.7902 -3.07165,2.2717 -5.62217,5.0383 -7.81702,8.1444 -2.6111,4.0036 -4.27134,8.4718 -5.80448,12.9664 -1.1037,4.0692 -2.32516,8.1169 -3.32854,12.214 -0.89238,3.9628 -0.97092,8.0037 -0.55861,12.0256 0.60496,4.535 1.66941,8.9924 3.65137,13.1244 2.32753,4.5842 5.69663,8.6451 9.76241,11.778 4.28682,2.6854 9.17982,3.0738 14.09321,3.3207 5.51375,0.025 10.86512,-1.0467 16.23266,-2.1373 3.70893,-0.9711 7.18841,-2.4137 10.55026,-4.2296 -33.39845,19.79 -15.74195,10.1716 -9.75302,2.8521 2.95475,-4.1427 5.30424,-8.7081 7.20448,-13.4207 1.77713,-5.3557 2.74418,-10.8933 2.96974,-16.5205 0.14754,-6.0353 -1.58459,-11.8816 -3.73031,-17.4599 -1.6453,-4.5132 -4.64984,-8.2493 -7.67573,-11.9039 -2.32927,-2.9878 -4.73988,-5.9086 -7.19841,-8.7903 -2.17312,-1.8351 -4.37774,-3.7093 -6.76678,-5.2635 -1.05298,-1.0535 -2.62778,-0.8061 -3.64392,-1.6905 -1.33223,-0.7088 -2.95849,-0.7401 -4.44072,-0.8501 -0.29295,-0.011 -0.5859,-0.022 -0.87884,-0.033 0,0 18.69802,-13.3742 18.69802,-13.3742 l 0,0 c 0.31354,0.034 0.62707,0.068 0.94061,0.1024 1.76415,0.2723 3.53499,0.6162 5.05924,1.6036 1.23423,-0.2119 2.58618,1.4805 3.59322,1.9446 2.41929,1.848 4.864,3.6932 7.09244,5.7673 2.36404,2.931 4.45858,6.0781 6.90977,8.9433 3.25938,3.8081 6.28975,7.8256 8.0491,12.5751 2.15679,5.8549 3.94909,12.0105 4.00753,18.2882 -0.0383,5.8107 -0.88762,11.5087 -2.46281,17.1073 -1.68522,4.9328 -4.28772,9.5156 -6.92194,13.9982 -6.69149,9.9108 -19.05323,14.5312 -28.80075,20.3464 -3.46481,1.6722 -7.11737,2.9146 -10.89014,3.6918 -5.43024,1.0222 -10.91151,1.7136 -16.45328,1.5868 -5.33633,-0.3774 -10.4575,-1.2215 -14.89664,-4.4659 -4.15224,-3.5197 -7.83187,-7.7489 -10.40456,-12.5666 -2.07348,-4.3664 -3.12708,-9.0692 -4.00559,-13.8069 -0.4688,-4.217 -0.58458,-8.4502 0.11834,-12.6563 0.93016,-4.2261 2.54119,-8.255 3.41538,-12.4988 1.53575,-4.6147 3.10105,-9.2074 5.44519,-13.4917 2.16399,-3.245 4.37223,-6.3736 7.50718,-8.7822 9.14062,-7.3792 19.75433,-12.8092 30.38293,-17.7276 3.02574,-0.7484 6.05342,-0.9519 9.15662,-0.5474 2.8629,0.262 5.69185,0.7342 8.51581,1.2696 0,0 -18.85528,13.1385 -18.85528,13.1385 z"
       inkscape:connector-curvature="0" />
    <path
       style="opacity:1;fill:#ec0a1a;fill-opacity:1;stroke:#bd4747;stroke-width:4.69999981;stroke-linecap:round;stroke-linejoin:round;stroke-miterlimit:4;stroke-dasharray:none;stroke-dashoffset:0;stroke-opacity:1"
       id="path6247"
       d="m 565.48246,1062.3912 c -1.9185,3.91 -3.04169,8.0977 -4.15489,12.2877 -1.16879,3.9613 -1.62549,8.0419 -1.83775,12.149 -0.21568,4.1997 -0.18077,8.3784 0.16376,12.5682 0.36912,6.1972 1.28326,12.3367 1.91975,18.5072 0.62234,6.5539 0.67722,13.1526 0.71286,19.732 0.0938,5.7435 0.0868,11.4876 0.13718,17.2314 -0.0306,5.4572 -0.0754,10.9136 -0.0302,16.3709 0.19437,5.1537 -0.80306,10.2538 -2.04093,15.2319 -0.92591,3.5298 -2.63645,6.7668 -4.10512,10.0865 -0.0878,0.2556 -0.17567,0.5113 -0.26351,0.7669 0,0 -21.16379,9.0958 -21.16379,9.0958 l 0,0 c 0.20268,-0.124 0.40535,-0.2479 0.60802,-0.3719 1.57602,-3.2378 3.27391,-6.4366 4.41279,-9.8601 1.6291,-4.6857 2.4873,-9.7406 2.43732,-14.7005 0.0475,-5.4511 0.007,-10.9014 -0.0106,-16.3524 0.0633,-5.7749 0.0774,-11.5503 0.0972,-17.3254 -0.0814,-6.5073 -0.12614,-13.0216 -0.70464,-19.5089 -0.59014,-6.1695 -1.52791,-12.2961 -1.99996,-18.4769 -0.45597,-4.2489 -0.82733,-8.4926 -0.50433,-12.77 0.23383,-4.2598 0.50561,-8.5432 1.75909,-12.6502 1.16666,-4.1492 1.989,-8.4047 3.72065,-12.3697 0,0 20.84707,-9.6415 20.84707,-9.6415 z"
       inkscape:connector-curvature="0" />
    <path
       style="opacity:1;fill:#ec0a1a;fill-opacity:1;stroke:#bd4747;stroke-width:4.69999981;stroke-linecap:round;stroke-linejoin:round;stroke-miterlimit:4;stroke-dasharray:none;stroke-dashoffset:0;stroke-opacity:1"
       id="path6249"
       d="m 625.56798,1065.8031 c -1.92166,2.4547 -4.10954,4.7322 -5.61463,7.4747 -1.17154,2.3121 -2.2881,4.6365 -3.03884,7.12 -1.10323,3.5024 -1.42928,7.1663 -1.65863,10.8107 0.0234,3.7218 -0.35464,7.3862 -0.87305,11.0653 -0.64149,5.1294 -0.78277,10.303 -0.85132,15.4663 -0.21646,5.0719 0.4259,10.1115 0.74164,15.1651 0.4677,5.6279 0.0199,11.2679 -0.33087,16.8876 -0.66322,4.885 -1.80021,9.6984 -2.77729,14.531 -0.76327,3.8779 -1.52447,7.7342 -2.59285,11.5395 -0.49068,2.7306 -1.66901,5.1211 -3.01201,7.5203 -0.96491,2.1849 -2.24758,4.1332 -3.66519,6.0405 -0.86201,1.2759 -1.95008,2.3579 -2.83547,3.6065 -0.98158,1.1351 -2.06864,2.171 -3.1453,3.2141 0,0 -21.42715,8.6985 -21.42715,8.6985 l 0,0 c 1.19835,-0.9372 2.31535,-1.9731 3.42495,-3.0124 1.13355,-0.9658 1.7487,-2.4122 2.88447,-3.4548 1.47927,-1.8293 2.99704,-3.5894 3.95619,-5.7565 1.20346,-2.3144 2.76946,-4.4292 3.13789,-7.0803 1.24975,-3.7775 2.2451,-7.5911 2.98103,-11.5067 1.05548,-4.7002 1.75028,-9.4771 2.77611,-14.1864 0.47061,-5.5516 1.21986,-11.1336 0.70498,-16.7078 -0.4242,-5.0834 -1.29777,-10.1503 -1.00674,-15.2631 0.13588,-5.219 0.28226,-10.4407 0.71271,-15.6455 0.34893,-3.6386 0.96572,-7.2319 0.84992,-10.9054 0.21074,-3.758 0.48368,-7.5441 1.35807,-11.2147 0.69085,-2.6144 1.41101,-5.1549 2.93035,-7.4611 1.29826,-3.3607 3.08099,-5.1661 5.29083,-7.9391 0,0 21.0802,-9.0063 21.0802,-9.0063 z"
       inkscape:connector-curvature="0" />
    <path
       style="opacity:1;fill:#ec0a1a;fill-opacity:1;stroke:#bd4747;stroke-width:4.69999981;stroke-linecap:round;stroke-linejoin:round;stroke-miterlimit:4;stroke-dasharray:none;stroke-dashoffset:0;stroke-opacity:1"
       id="path6251"
       d="m 666.21466,1133.3586 c -0.85389,5.711 -1.21487,11.4168 -1.08035,17.1849 0.19758,5.6491 0.65134,11.2696 1.45772,16.8635 0.63271,4.5631 1.29968,9.1253 2.45643,13.5884 0.99355,3.6787 1.46972,7.4635 2.23792,11.1927 -0.18696,0.3829 1.67429,5.5531 0.31312,2.3537 0,0 -19.1413,13.0722 -19.1413,13.0722 l 0,0 c -0.88484,-1.4848 -1.01901,-2.9924 -1.25356,-4.71 -0.65935,-3.7147 -1.36865,-7.4196 -2.13682,-11.1114 -1.07332,-4.571 -1.91004,-9.2025 -2.48322,-13.8619 -0.66899,-5.7049 -1.35286,-11.3916 -1.38297,-17.1481 -0.24156,-5.6868 -0.0511,-11.3469 0.57212,-17.0088 0,0 20.44091,-10.4152 20.44091,-10.4152 z"
       inkscape:connector-curvature="0" />
    <path
       style="opacity:1;fill:#ec0a1a;fill-opacity:1;stroke:#bd4747;stroke-width:4.69999981;stroke-linecap:round;stroke-linejoin:round;stroke-miterlimit:4;stroke-dasharray:none;stroke-dashoffset:0;stroke-opacity:1"
       id="path6253"
       d="m 645.59722,1120.4695 c -0.94483,-2.4767 -1.58695,-5.0611 -2.77011,-7.4403 -0.72101,-1.119 -1.32837,-2.1995 -1.59637,-3.5112 -0.15134,-0.8801 -0.19277,-1.7658 -0.1945,-2.6559 0,0 20.59759,-10.4811 20.59759,-10.4811 l 0,0 c -0.0101,0.7878 -0.0413,1.5761 -3e-5,2.3636 0.0566,1.1147 0.66535,1.978 1.15408,2.963 1.14177,2.4622 1.75364,5.087 2.86305,7.5634 0,0 -20.05371,11.1985 -20.05371,11.1985 z"
       inkscape:connector-curvature="0" />
    <path
       style="opacity:1;fill:#ec0a1a;fill-opacity:1;stroke:#bd4747;stroke-width:4.69999981;stroke-linecap:round;stroke-linejoin:round;stroke-miterlimit:4;stroke-dasharray:none;stroke-dashoffset:0;stroke-opacity:1"
       id="path6255"
       d="m 692.22793,1199.9547 c 0.28412,-7.1491 0.28921,-14.3072 0.27883,-21.461 -0.0641,-6.3685 -0.12631,-12.7367 -0.12986,-19.1055 0.0247,-5.5027 0.003,-11.0049 -0.0564,-16.5073 -0.0326,-4.4896 -0.0227,-8.9787 0.0103,-13.4682 -0.0472,-4.8655 8.6e-4,-9.73 0.0312,-14.5954 0.21594,-4.4193 0.72616,-8.817 1.05913,-13.2287 0.0391,-0.805 0.14015,-1.6096 0.1397,-2.4161 22.42888,-12.0662 20.70315,-16.6443 20.62676,-6.0013 0.0296,1.8376 -0.005,3.6754 0.01,5.513 -0.11235,1.6504 -0.0822,3.145 0.51851,4.6752 0.38522,1.2981 1.44588,0.9912 2.56979,1.0305 2.35371,0.088 4.70965,0.06 7.06447,0.058 2.46859,-0.398 4.65119,-1.5622 6.88996,-2.6265 -0.63419,0.3755 1.49876,-0.7816 1.13242,-0.5707 -64.22133,36.9686 46.1542,-26.5313 -17.2085,9.8524 8.48068,-5.2927 16.10506,-12.0068 26.0338,-12.8426 2.37782,-0.4595 3.9984,0.6116 5.84362,2.0361 2.87856,2.944 6.04726,5.6058 8.80177,8.6668 2.65945,2.9993 4.43761,6.6224 6.20998,10.1831 2.03024,3.6137 2.93864,7.669 3.61331,11.7172 0.3822,4.4225 1.35254,8.7564 2.12521,13.1176 0.9978,4.9407 1.32571,9.9838 1.96815,14.9796 0.57499,4.904 1.18213,9.805 1.47878,14.7352 0.0524,3.0844 0.21209,6.1677 0.17235,9.2528 -0.16543,2.4302 -0.65844,4.8249 -1.09191,7.2187 0,0 -20.76547,10.0019 -20.76547,10.0019 l 0,0 c 0.61564,-2.2501 1.09163,-4.5327 1.46895,-6.8348 -0.0339,-3.0689 0.11723,-6.1383 -0.0325,-9.2065 -0.14592,-4.9169 -0.45338,-9.8319 -1.09971,-14.7109 -0.67399,-4.9291 -1.09858,-9.9178 -2.30423,-14.7516 -0.56694,-4.414 -1.37857,-8.7922 -1.87662,-13.2143 -0.64379,-3.8561 -1.60337,-7.6275 -3.51978,-11.0714 -1.49475,-3.4742 -3.26471,-6.8146 -5.83468,-9.6305 -2.59178,-2.9527 -5.55068,-5.5688 -8.52199,-8.1315 -1.7423,-0.9055 -3.13581,-1.0042 -5.03375,-0.5844 -8.57137,1.7931 -19.93674,10.3698 13.81495,-9.223 -67.69924,39.0486 45.16434,-26.0669 -23.38702,13.2866 -2.37652,0.983 -4.77847,1.8842 -7.40159,1.8144 -2.43833,0.01 -4.88793,0.028 -7.31247,-0.2667 -1.77706,-0.3886 -3.32216,-1.2153 -3.91591,-3.061 -0.72062,-1.8088 -1.09347,-3.4889 -0.883,-5.4629 0.0149,-1.842 -0.0199,-3.6843 0.0122,-5.5264 -0.0599,-10.8255 -0.76668,-4.8193 20.6376,-14.671 -0.21664,0.8166 -0.27884,1.6697 -0.43396,2.4986 -0.63314,4.3686 -1.1253,8.7563 -1.4744,13.157 0.0304,4.8547 0.0783,9.7087 0.0312,14.5636 0.0332,4.486 0.0428,8.9716 0.0103,13.4577 -0.0593,5.5215 -0.0813,11.0429 -0.0564,16.5647 -0.004,6.413 -0.0661,12.8253 -0.12986,19.2379 -0.0102,7.059 -0.01,14.1227 0.27883,21.1768 0,0 -20.36192,10.3749 -20.36192,10.3749 z"
       inkscape:connector-curvature="0" />
    <path
       style="opacity:1;fill:#ec0a1a;fill-opacity:1;stroke:#bd4747;stroke-width:4.69999981;stroke-linecap:round;stroke-linejoin:round;stroke-miterlimit:4;stroke-dasharray:none;stroke-dashoffset:0;stroke-opacity:1"
       id="path6257"
       d="m 860.94193,1149.1647 c -1.43241,4.2307 -2.88531,8.4541 -4.34587,12.676 -1.4754,4.1317 -2.36865,8.4035 -4.16648,12.4144 -1.44335,3.3751 -3.20787,6.5833 -5.11222,9.7151 -5.68556,7.9677 -15.04693,14.1954 -24.72703,15.705 -3.36589,0.218 -6.78506,0.4158 -10.13116,-0.063 -4.18881,-0.5024 -7.35632,-2.7128 -9.82492,-6.0173 -3.07779,-4.8469 -4.48924,-10.4624 -5.91027,-15.961 -1.41328,-5.0669 -2.08986,-10.3083 -2.051,-15.5617 0.19432,-4.8607 0.92705,-9.6452 1.93034,-14.3963 1.58168,-6.3801 3.7907,-12.6097 6.52233,-18.5851 2.51053,-5.2097 5.58471,-10.1286 9.18833,-14.6475 6.63063,-8.5385 16.07781,-14.3757 26.6364,-17.6754 1.53605,-0.3772 3.15832,-0.4784 4.58152,0.2288 2.43647,1.2908 4.72909,2.5027 6.85312,4.3026 2.8773,3.0129 5.25609,6.4558 7.58651,9.897 2.55227,4.1949 4.25439,8.7896 5.72737,13.4512 1.36579,5.029 2.3447,10.118 2.95571,15.2894 1.0791,5.3814 1.3851,10.8525 1.87888,16.3045 0.66755,7.0376 1.20298,14.0883 1.51719,21.1507 0.23731,5.8523 0.20846,11.7124 0.1953,17.5686 0.23904,5.9957 -0.38837,11.9517 -0.88558,17.9149 -0.68091,5.1624 -1.13404,10.363 -2.35789,15.4312 -1.08325,4.67 -2.61699,9.1816 -4.63942,13.5215 -1.53797,3.3661 -3.66612,6.3704 -6.06259,9.168 -2.66371,2.9109 -5.47868,5.6794 -8.23553,8.5017 -6.91002,7.1342 -15.9434,12.4245 -25.40909,15.46 -3.01949,0.705 -6.12585,0.8405 -9.18856,0.4279 -4.7147,-0.4774 -9.24369,-1.8964 -13.78091,-3.1867 -3.873,-1.3956 -7.08668,-4.0367 -10.12269,-6.7421 -2.49666,-2.0319 -4.7766,-4.3947 -6.68134,-6.9925 -1.88773,-2.5545 -3.14291,-5.5183 -4.18839,-8.5002 -0.9576,-2.8033 -1.14872,-5.7489 -1.36871,-8.6776 -0.0904,-0.8862 -0.089,-1.7768 -0.0917,-2.6662 0,0 20.48178,-10.4452 20.48178,-10.4452 l 0,0 c 0.004,0.8697 0.007,1.7395 -0.005,2.6092 0.0396,2.7449 0.19645,5.502 0.97424,8.1527 0.9166,2.7771 2.10258,5.5252 3.87692,7.8669 1.82979,2.4509 3.96902,4.6856 6.30224,6.6618 2.85264,2.4987 5.92473,4.778 9.59694,5.9066 4.39695,1.3719 8.8704,2.5753 13.49951,2.7773 2.94857,0.012 5.95343,-0.1597 8.68871,-1.3708 7.55257,-3.8837 -0.64349,0.3083 -17.43556,10.1515 -0.34866,0.2044 0.7422,-0.3209 1.10449,-0.5001 1.06481,-0.5264 1.78995,-1.349 2.61788,-2.1881 2.84293,-2.7477 5.64868,-5.5341 8.36721,-8.4056 2.43716,-2.6314 4.74547,-5.3916 6.38849,-8.6066 2.0546,-4.2361 3.99031,-8.5072 4.90583,-13.1685 1.36949,-4.9464 1.85975,-10.061 2.62315,-15.1273 0.4601,-5.9192 1.28174,-11.8182 1.00197,-17.7697 -0.0198,-5.8338 -0.0317,-11.6675 -0.15273,-17.5003 -0.19684,-7.0266 -0.50552,-14.0571 -1.4061,-21.035 -0.64717,-5.4103 -0.94833,-10.8624 -2.0276,-16.2177 -0.50038,-5.0435 -1.45505,-9.986 -2.79522,-14.8762 -1.37587,-4.455 -2.90074,-8.877 -5.40949,-12.8432 -2.27686,-3.2167 -4.45239,-6.5817 -7.38794,-9.2457 -1.95441,-1.4708 -4.12502,-2.6581 -6.46792,-3.3844 -1.26609,0.1563 -2.51497,0.2718 -3.65203,0.9218 -7.06228,3.8213 -2.75094,1.5012 17.57218,-10.3309 0.41291,-0.2404 -0.8167,0.4972 -1.20972,0.7689 -1.64839,1.1397 -3.0025,2.535 -4.15053,4.1843 -3.8018,4.2992 -6.99464,9.0904 -9.5989,14.2097 -2.88455,5.7354 -5.00099,11.8296 -6.63576,18.0353 -0.94189,4.6332 -1.72791,9.2882 -2.02404,14.0141 -0.32247,5.0683 0.45359,10.1383 1.59272,15.0726 1.33084,5.1866 2.70277,10.51 5.66699,15.0393 2.28829,2.8084 5.26373,4.1665 8.88486,4.4294 3.22847,0.1677 6.593,0.167 9.71012,-0.7731 7.43243,-3.7688 0.56041,-0.3085 -17.73911,10.4729 -0.2882,0.1698 0.61827,-0.2694 0.88842,-0.4666 0.95083,-0.6944 1.65195,-1.7432 2.4856,-2.5576 2.26135,-2.8119 3.87323,-6.1646 5.40246,-9.4169 1.94027,-3.9471 3.03662,-8.0913 4.37958,-12.2691 1.4959,-4.111 2.82169,-8.2841 4.04151,-12.4852 0,0 20.75237,-9.7461 20.75237,-9.7461 z"
       inkscape:connector-curvature="0" />
    <text
       xml:space="preserve"
       style="font-style:normal;font-weight:normal;font-size:12.5px;line-height:125%;font-family:Sans;letter-spacing:0px;word-spacing:0px;fill:#000000;fill-opacity:1;stroke:none;stroke-width:1px;stroke-linecap:butt;stroke-linejoin:miter;stroke-opacity:1"
       x="22.593281"
       y="325.77588"
       id="text6259"
       sodipodi:linespacing="125%"><tspan
         sodipodi:role="line"
         id="tspan6261"
         x="22.593281"
         y="325.77588">Infinity Plus One</tspan><tspan
         sodipodi:role="line"
         x="22.593281"
         y="341.40088"
         id="tspan6263">The Posibilities Are Endless</tspan></text>
  </g>
</svg>
